PathFileType	4	(X/Y/Z)	D:\Long Term Storage\D'Arcy Smith\Coord16.trc
DataRate	CameraRate	NumFrames	NumMarkers	Units	OrigDataRate	OrigDataStartFrame	OrigNumFrames
120.00	120.00	      113	4	mm	120.00	1	      4844
Frame#	Time	M1			M2			M3			M4			
		X1	Y1	Z1	X2	Y2	Z2	X3	Y3	Z3	X4	Y4	Z4	

1	0.000	1025.98120	278.04239	361.82126	1625.59314	287.22052	281.78824							
2	0.008	1028.27185	275.88495	381.12656	1625.43970	292.85049	267.56021							
3	0.017	1030.05164	275.01807	398.33887	1625.09875	299.20404	253.64018							
4	0.025	1032.05542	274.73053	419.83249	1624.97900	305.93845	239.92589							
5	0.033	1033.61804	275.12701	437.52020	1624.80945	312.60611	226.89560							
6	0.042	1035.83264	276.82635	455.42422	1625.24548	319.78940	213.83597							
7	0.050	1037.63269	279.26743	472.60141	1624.83984	326.83951	202.17070							
8	0.058	1039.50549	281.95123	488.25250	1625.11523	334.31808	190.18739							
9	0.067	1040.79407	285.52307	501.92111	1625.60986	341.50989	179.22523							
10	0.075	1042.18640	288.63373	514.22809	1625.64819	348.99997	168.87407							
11	0.083	1043.11340	291.86783	525.37427	1626.29248	356.04980	159.35574							
12	0.092	1044.55383	295.73203	535.16809	1626.59436	363.49707	150.37892							
13	0.100	1045.29932	298.89481	544.35541	1627.31018	370.60736	141.65619							
14	0.108	1046.23401	301.20889	551.26569	1627.89648	377.29999	133.94221							
15	0.117	1046.98340	303.16904	559.65308	1628.57043	383.72824	126.73079							
16	0.125	1046.82092	305.06357	561.68500	1629.64185	389.96420	120.57007							
17	0.133	1047.46497	305.96323	566.65894	1630.53613	395.64368	114.59504							
18	0.142	1047.47095	306.29810	568.25842	1631.43787	400.73248	109.78287							
19	0.150	1047.35986	306.18747	568.43066	1632.87402	405.59201	105.66402							
20	0.158	1046.95178	305.59766	567.20062	1633.64795	409.64474	101.89727							
21	0.167	1046.11169	304.55115	562.94293	1634.91638	412.90500	98.96956							
22	0.175	1046.02246	302.77496	561.37933	1635.98792	415.91837	96.64079							
23	0.183	1044.58618	300.41458	557.65912	1637.81177	417.52383	95.88237							
24	0.192	1043.50647	298.42874	549.43805	1638.71277	419.15741	95.11528							
25	0.200	1042.53992	296.19189	543.70599	1639.86694	419.82651	94.61072							
26	0.208	1041.93921	293.26196	537.15576	1640.93359	419.55133	95.10437							
27	0.217	1041.25146	290.68289	530.43298	1641.95679	418.65530	95.80035							
28	0.225	1040.03247	288.10452	522.24902	1642.59119	417.00970	97.14067							
29	0.233	1039.61401	285.63483	514.68048	1643.78235	414.55902	99.08338							
30	0.242	1038.69470	283.27792	506.02313	1644.28931	411.97174	101.05538							
31	0.250	1037.81653	280.48328	498.45358	1645.18872	408.07965	104.11066							
32	0.258	1036.94836	278.46271	489.18726	1645.42505	403.62668	107.69037							
33	0.267	1035.99438	276.57254	479.03973	1646.15918	398.51776	111.52013							
34	0.275	1035.27942	275.02588	469.94046	1645.55115	393.39526	116.09125							
35	0.283	1035.06360	273.65460	461.08252	1645.74268	387.18213	121.08766							
36	0.292	1034.42590	272.52954	451.23843	1645.58911	380.85837	126.22417							
37	0.300	1033.89417	271.72824	441.46573	1645.16943	373.39642	132.97583							
38	0.308	1033.13867	271.02997	431.40192	1644.38416	366.14792	139.60539							
39	0.317	1032.76013	270.69754	421.94214	1643.83130	358.21848	147.12067							
40	0.325	1032.49963	270.72528	412.03760	1642.83337	349.82275	155.45828							
41	0.333	1032.70789	271.15985	403.37131	1642.10144	341.19644	164.56255							
42	0.342	1032.50586	271.59952	393.54599	1640.54138	332.53040	174.64505							
43	0.350	1032.37317	272.44037	384.07040	1639.41064	323.72476	185.18013							
44	0.358	1031.87732	273.33582	373.66229	1638.09546	314.41797	197.09761							
45	0.367	1032.64209	275.16418	364.48624	1636.21875	305.61618	209.24431							
46	0.375	1032.59753	276.69690	354.97919	1634.57520	296.77441	222.43813							
47	0.383	1032.79797	278.46817	345.57086	1632.57483	288.50717	236.25493							
48	0.392	1033.06458	280.81625	336.41916	1629.84546	280.81766	250.54329							
49	0.400	1032.70691	283.22662	326.21039	1627.26685	273.38782	265.62115							
50	0.408	1033.16077	286.03363	316.97314	1624.96313	266.72501	281.43127							
51	0.417	1033.18042	289.40741	306.80139	1622.31421	260.59955	297.43881							
52	0.425	1033.96948	293.06589	296.69400	1619.90515	255.04604	314.24023							
53	0.433	1034.06140	296.24399	287.87125	1617.55176	250.09550	331.45740							
54	0.442	1034.22827	299.74976	278.96393	1615.10437	246.00475	348.60315							
55	0.450	1034.47046	303.37073	270.45914	1612.82422	242.63272	366.98923							
56	0.458	1034.85437	307.09271	262.17310	1610.44214	240.06248	385.10757							
57	0.467	1035.08716	311.33411	253.80164	1607.81458	238.59778	401.74295							
58	0.475	1035.44617	315.42316	246.02327	1605.85046	238.95697	419.92633							
59	0.483	1035.45215	319.46423	238.41971	1602.62939	239.78264	435.25653							
60	0.492	1035.67261	323.76224	231.02675	1600.61975	241.86786	451.52411							
61	0.500	1036.18384	327.75549	223.93524	1598.48633	245.06050	468.52161							
62	0.508	1035.90771	332.23669	216.95374	1596.21960	248.23422	483.51462							
63	0.517	1036.30957	336.30792	210.39207	1594.35193	252.43053	498.02325							
64	0.525	1036.20032	340.56107	204.02368	1593.36975	257.33017	512.05859							
65	0.533	1036.20190	344.71436	197.87973	1591.73230	263.00140	525.05103							
66	0.542	1036.08948	348.73761	191.99472	1590.71521	268.67285	537.49634							
67	0.550	1035.98792	352.64063	186.46378	1590.01355	274.11444	549.41760							
68	0.558	1035.88745	356.38443	181.37836	1589.44385	280.21017	560.20258							
69	0.567	1035.82922	360.07614	176.54134	1588.65308	285.79303	569.12103							
70	0.575	1035.61511	363.45911	172.00067	1588.15942	291.37949	577.07599							
71	0.583	1035.55029	366.82120	167.74123	1587.82080	296.54492	584.39294							
72	0.592	1035.27917	369.98770	163.78662	1587.97058	301.07755	591.03912							
73	0.600	1035.02393	372.88855	160.24290	1587.79553	305.46472	596.08325							
74	0.608	1034.90649	375.70673	156.79259	1587.92419	309.28830	600.84772							
75	0.617	1034.65100	378.15707	153.82826	1588.21460	312.47925	603.62714							
76	0.625	1033.92419	380.59918	150.97511	1588.57544	315.02097	606.48865							
77	0.633	1033.64270	382.58896	148.48665	1588.97510	317.14117	608.84888							
78	0.642	1033.34009	384.28674	146.34082	1589.67236	318.24091	610.27173							
79	0.650	1033.06458	385.63782	144.60159	1590.13708	319.28470	611.12628							
80	0.658	1032.69409	386.70813	143.24051	1591.11853	319.47964	611.24078							
81	0.667	1032.41479	387.41193	142.32062	1591.83936	319.49612	610.78363							
82	0.675	1032.07410	387.71060	141.75250	1592.68250	318.84082	609.45276							
83	0.683	1031.81982	387.72305	141.49149	1593.54822	317.49475	607.42279							
84	0.692	1031.55127	387.51111	141.47151	1594.22937	316.02087	604.99518							
85	0.700	1031.35596	387.00479	141.77289	1595.15784	314.31320	601.65643							
86	0.708	1031.13159	386.15491	142.40860	1595.80237	311.29208	598.37708							
87	0.717	1030.83716	384.97549	143.39516	1596.95496	309.28757	594.03119							
88	0.725	1030.51636	383.62341	144.72157	1597.85120	306.49069	589.21631							
89	0.733	1030.10254	381.62051	146.40161	1598.64856	303.43304	583.71448							
90	0.742	1029.97974	379.57959	148.34648	1599.51074	300.37088	577.40588							
91	0.750	1029.80774	376.98959	150.63979	1600.44824	296.85312	571.12225							
92	0.758	1029.49219	373.99057	153.42189	1601.14099	293.58353	563.68793							
93	0.767	1029.30591	370.69168	156.57700	1601.92871	289.96848	556.13416							
94	0.775	1029.07532	366.97137	160.08649	1602.45874	286.35785	547.89819							
95	0.783	1028.85620	362.78094	164.18520	1603.09680	282.93350	539.20135							
96	0.792	1028.48413	358.26031	168.69725	1603.58826	279.50024	529.91333							
97	0.800	1028.33813	353.52762	173.73027	1603.98071	276.19922	520.23676							
98	0.808	1028.04285	348.50482	179.22440	1604.26355	273.25140	510.29373							
99	0.817	1028.00049	343.16309	185.22635	1604.66833	270.50522	499.40579							
100	0.825	1027.78235	337.51538	192.01041	1605.03723	267.58722	488.86475							
101	0.833	1027.92432	331.63333	199.48567	1604.92517	265.36353	478.00809							
102	0.842	1027.86243	325.43417	207.76062	1605.40051	263.90857	465.40457							
103	0.850	1027.88989	319.14307	216.69635	1605.32056	262.65262	453.51306							
104	0.858	1028.24329	312.88565	226.46495	1605.38184	261.74722	441.32861							
105	0.867	1028.76514	306.55798	236.95024	1605.25500	261.45850	428.40576							
106	0.875	1029.41931	299.76083	248.56952	1605.02979	261.29684	416.19745							
107	0.883	1030.45740	293.65640	260.86340	1604.70337	261.33942	403.32422							
108	0.892	1031.45093	287.46167	273.86362	1604.75537	261.96094	390.53580							
109	0.900	1032.37842	281.74503	287.09354	1604.46582	263.45535	377.62814							
110	0.908	1033.19275	276.56561	300.55942	1604.27161	265.05841	364.52823							
111	0.917	1034.79712	271.59427	315.97104	1603.39429	268.28336	351.02652							
112	0.925	1036.16443	267.47220	331.72250	1603.14026	270.39697	338.55203							
113	0.933	1036.82471	262.57776	348.78360	1603.33118	273.17044	325.89548							
